<svg width="24" height="25" viewBox="0 0 24 25" fill="none" xmlns="http://www.w3.org/2000/svg">
<path d="M17.5399 8.81C18.8986 8.81 20 7.70862 20 6.35C20 4.99138 18.8986 3.89 17.5399 3.89C16.1813 3.89 15.08 4.99138 15.08 6.35C15.08 7.70862 16.1813 8.81 17.5399 8.81Z" stroke="white" stroke-width="1.5" stroke-miterlimit="10" stroke-linecap="round" stroke-linejoin="round"/>
<path d="M6.46001 8.81C7.81863 8.81 8.92 7.70862 8.92 6.35C8.92 4.99138 7.81863 3.89 6.46001 3.89C5.10139 3.89 4 4.99138 4 6.35C4 7.70862 5.10139 8.81 6.46001 8.81Z" stroke="white" stroke-width="1.5" stroke-miterlimit="10" stroke-linecap="round" stroke-linejoin="round"/>
<path d="M17.5399 21.11C18.8986 21.11 20 20.0086 20 18.65C20 17.2914 18.8986 16.19 17.5399 16.19C16.1813 16.19 15.08 17.2914 15.08 18.65C15.08 20.0086 16.1813 21.11 17.5399 21.11Z" stroke="white" stroke-width="1.5" stroke-miterlimit="10" stroke-linecap="round" stroke-linejoin="round"/>
<path d="M6.46001 21.11C7.81863 21.11 8.92 20.0086 8.92 18.65C8.92 17.2914 7.81863 16.19 6.46001 16.19C5.10139 16.19 4 17.2914 4 18.65C4 20.0086 5.10139 21.11 6.46001 21.11Z" stroke="white" stroke-width="1.5" stroke-miterlimit="10" stroke-linecap="round" stroke-linejoin="round"/>
</svg>
