<svg width="12" height="12" viewBox="0 0 12 12" fill="none" xmlns="http://www.w3.org/2000/svg">
<path fill-rule="evenodd" clip-rule="evenodd" d="M11.5381 0.409108C11.8644 0.733728 11.8657 1.26136 11.5411 1.58762L7.1759 5.97471L11.5911 10.412C11.9157 10.7383 11.9144 11.2659 11.5881 11.5906C11.2619 11.9152 10.7342 11.9139 10.4096 11.5876L6.00032 7.15619L1.59106 11.5876C1.26643 11.9139 0.738799 11.9152 0.412548 11.5906C0.0862967 11.2659 0.084975 10.7383 0.409596 10.412L4.82475 5.97471L0.459579 1.58762C0.134958 1.26137 0.13628 0.733733 0.462531 0.409112C0.788782 0.0844912 1.31642 0.0858128 1.64104 0.412064L6.00032 4.79324L10.3596 0.412059C10.6842 0.0858084 11.2119 0.0844868 11.5381 0.409108Z" fill="#686868"/>
</svg>
