<svg width="24" height="25" viewBox="0 0 24 25" fill="none" xmlns="http://www.w3.org/2000/svg">
<path d="M14.5299 9.97001L9.46992 15.03C8.81992 14.38 8.41992 13.49 8.41992 12.5C8.41992 10.52 10.0199 8.92001 11.9999 8.92001C12.9899 8.92001 13.8799 9.32001 14.5299 9.97001Z" stroke="#9E9E9E" stroke-width="1.5" stroke-linecap="round" stroke-linejoin="round"/>
<path d="M17.8198 6.27001C16.0698 4.95001 14.0698 4.23001 11.9998 4.23001C8.46984 4.23001 5.17984 6.31001 2.88984 9.91001C1.98984 11.32 1.98984 13.69 2.88984 15.1C3.67984 16.34 4.59984 17.41 5.59984 18.27" stroke="#9E9E9E" stroke-width="1.5" stroke-linecap="round" stroke-linejoin="round"/>
<path d="M8.41992 20.03C9.55992 20.51 10.7699 20.77 11.9999 20.77C15.5299 20.77 18.8199 18.69 21.1099 15.09C22.0099 13.68 22.0099 11.31 21.1099 9.89999C20.7799 9.37999 20.4199 8.88999 20.0499 8.42999" stroke="#9E9E9E" stroke-width="1.5" stroke-linecap="round" stroke-linejoin="round"/>
<path d="M15.5104 13.2C15.2504 14.61 14.1004 15.76 12.6904 16.02" stroke="#9E9E9E" stroke-width="1.5" stroke-linecap="round" stroke-linejoin="round"/>
<path d="M9.47 15.03L2 22.5" stroke="#9E9E9E" stroke-width="1.5" stroke-linecap="round" stroke-linejoin="round"/>
<path d="M22.0003 2.5L14.5303 9.97" stroke="#9E9E9E" stroke-width="1.5" stroke-linecap="round" stroke-linejoin="round"/>
</svg>
