<svg width="36" height="37" viewBox="0 0 36 37" fill="none" xmlns="http://www.w3.org/2000/svg">
<path d="M13.5 15.5C15.1569 15.5 16.5 14.1569 16.5 12.5C16.5 10.8431 15.1569 9.5 13.5 9.5C11.8431 9.5 10.5 10.8431 10.5 12.5C10.5 14.1569 11.8431 15.5 13.5 15.5Z" stroke="#686868" stroke-width="1.5" stroke-linecap="round" stroke-linejoin="round"/>
<path d="M19.5 3.5H13.5C6 3.5 3 6.5 3 14V23C3 30.5 6 33.5 13.5 33.5H22.5C30 33.5 33 30.5 33 23V15.5" stroke="#686868" stroke-width="1.5" stroke-linecap="round" stroke-linejoin="round"/>
<path d="M23.625 8H31.875" stroke="#686868" stroke-width="1.5" stroke-linecap="round"/>
<path d="M27.75 12.125V3.875" stroke="#686868" stroke-width="1.5" stroke-linecap="round"/>
<path d="M4.00488 28.9251L11.3999 23.9601C12.5849 23.1651 14.2949 23.2551 15.3599 24.1701L15.8549 24.6051C17.0249 25.6101 18.9149 25.6101 20.0849 24.6051L26.3249 19.2501C27.4949 18.2451 29.3849 18.2451 30.5549 19.2501L32.9999 21.3501" stroke="#686868" stroke-width="1.5" stroke-linecap="round" stroke-linejoin="round"/>
</svg>
