<svg width="16" height="16" viewBox="0 0 16 16" fill="none" xmlns="http://www.w3.org/2000/svg">
<path d="M10.8001 6.66669C10.8001 6.66669 10.6668 7.33335 8.66677 10C6.73344 12.5334 9.53344 14.4 9.86677 14.6667H9.93344C10.3334 14.3334 15.4001 11.1334 10.8001 6.66669Z" stroke="black" stroke-width="0.5" stroke-miterlimit="10" stroke-linecap="round" stroke-linejoin="round"/>
<path d="M9.20003 5.20003C9.20003 3.66669 8.60003 2.26669 8.00003 1.46669C7.80003 1.26669 7.4667 1.33336 7.40003 1.60003C7.13337 2.60003 6.33337 4.73336 4.40003 7.26669C1.93337 10.4667 4.20003 13.9334 6.53337 14.6C7.80003 14.9334 6.20003 13.9334 6.00003 11.8667C5.80003 9.26669 9.20003 7.33336 9.20003 5.20003Z" stroke="black" stroke-width="0.5" stroke-miterlimit="10" stroke-linecap="round" stroke-linejoin="round"/>
</svg>
