<svg width="283" height="35" viewBox="0 0 283 35" fill="none" xmlns="http://www.w3.org/2000/svg">
    <path d="M0.144 32.304C0.048 31.856 0 30.992 0 29.712C0 28.432 0.24 27.072 0.72 25.632H1.152C1.12 25.984 1.104 26.336 1.104 26.688C1.104 28.64 1.696 30.272 2.88 31.584C4.064 32.864 5.632 33.504 7.584 33.504C9.6 33.504 11.248 32.896 12.528 31.68C13.84 30.464 14.496 28.944 14.496 27.12C14.496 25.264 13.872 23.76 12.624 22.608L3.408 14.064C1.68 12.464 0.816 10.528 0.816 8.256C0.816 5.984 1.568 4.048 3.072 2.448C4.608 0.816 6.672 0 9.264 0C10.48 0 11.856 0.16 13.392 0.48H15.264V6.384H14.832C14.832 4.88 14.304 3.68 13.248 2.784C12.224 1.888 10.896 1.44 9.264 1.44C7.632 1.44 6.256 1.984 5.136 3.072C4.048 4.16 3.504 5.52 3.504 7.152C3.504 8.784 4.144 10.192 5.424 11.376L14.88 20.112C16.48 21.584 17.28 23.6 17.28 26.16C17.28 28.72 16.464 30.832 14.832 32.496C13.2 34.128 11.024 34.944 8.304 34.944C6.896 34.944 5.392 34.72 3.792 34.272C2.224 33.856 1.008 33.2 0.144 32.304Z" fill="black"/>
    <path d="M47.0681 9.936C47.0681 11.344 46.7801 12.656 46.2041 13.872C45.1481 16.144 43.2921 17.728 40.6361 18.624C39.7081 18.944 38.9081 19.104 38.2361 19.104C36.2521 19.104 34.5401 18.736 33.1001 18V17.52C35.4361 18.032 37.5961 17.776 39.5801 16.752C41.3401 15.856 42.5401 14.384 43.1801 12.336C43.3721 11.696 43.4681 11.088 43.4681 10.512C43.4681 9.936 43.4681 9.584 43.4681 9.456C43.4041 7.216 42.8121 5.44 41.6921 4.128C40.5721 2.784 39.0041 2.112 36.9881 2.112H31.4681V30.768C31.5001 31.6 31.8041 32.32 32.3801 32.928C32.9881 33.504 33.7081 33.792 34.5401 33.792H35.1641V34.272H24.6521V33.792H25.2761C26.1081 33.792 26.8121 33.504 27.3881 32.928C27.9961 32.32 28.3161 31.6 28.3481 30.768V3.936C28.2521 3.136 27.9161 2.48 27.3401 1.968C26.7641 1.424 26.0761 1.152 25.2761 1.152H24.7001L24.6521 0.672H37.1801C40.2521 0.672 42.6681 1.504 44.4281 3.168C46.1881 4.8 47.0681 7.056 47.0681 9.936Z" fill="black"/>
    <path d="M82.1963 33.792H82.5803V34.272H71.7803V33.792H72.2122C72.8842 33.792 73.3803 33.584 73.7003 33.168C74.0523 32.72 74.2282 32.304 74.2282 31.92C74.2282 31.536 74.1643 31.152 74.0363 30.768L70.9642 22.608H58.0043L54.7882 30.816C54.6602 31.2 54.5963 31.584 54.5963 31.968C54.5963 32.32 54.7563 32.72 55.0763 33.168C55.4283 33.584 55.9403 33.792 56.6123 33.792H57.0443V34.272H47.3963V33.792H47.8283C48.6283 33.792 49.4123 33.536 50.1803 33.024C50.9483 32.512 51.5723 31.76 52.0522 30.768L62.9003 4.944C64.0843 2.352 64.6763 0.704 64.6763 0H65.1083L77.9723 30.768C78.4202 31.76 79.0283 32.512 79.7962 33.024C80.5643 33.536 81.3643 33.792 82.1963 33.792ZM58.5802 21.168H70.3883L64.6283 5.76L58.5802 21.168Z" fill="black"/>
    <path d="M96.4961 2.16H93.4241V30.768C93.4241 31.6 93.7121 32.32 94.2881 32.928C94.8961 33.504 95.6321 33.792 96.4961 33.792H97.0721L97.1201 34.272H86.6081V33.792H87.2321C88.0641 33.792 88.7681 33.504 89.3441 32.928C89.9521 32.352 90.2721 31.648 90.3041 30.816V4.176C90.2721 3.344 89.9521 2.64 89.3441 2.064C88.7681 1.456 88.0641 1.152 87.2321 1.152H86.6081V0.672H99.5681C102.48 0.672 104.768 1.488 106.432 3.12C108.096 4.72 108.928 6.816 108.928 9.408C108.928 11.968 108.128 14.192 106.528 16.08C104.96 17.936 103.04 18.864 100.768 18.864C101.248 19.088 101.808 19.536 102.448 20.208C103.12 20.848 103.712 21.52 104.224 22.224C106.976 26.16 108.768 28.592 109.6 29.52C110.432 30.416 111.024 31.04 111.376 31.392C111.728 31.712 112.112 32.032 112.528 32.352C112.944 32.672 113.36 32.928 113.776 33.12C114.704 33.568 115.696 33.792 116.752 33.792V34.272H114.112C112.736 34.272 111.456 34.032 110.272 33.552C109.088 33.04 108.192 32.528 107.584 32.016C107.008 31.472 106.496 30.96 106.048 30.48C105.632 29.968 104.448 28.304 102.496 25.488C100.544 22.672 99.4081 21.072 99.0881 20.688C98.7681 20.272 98.4321 19.872 98.0801 19.488C97.0561 18.4 96.0321 17.856 95.0081 17.856V17.376C95.2641 17.408 95.6001 17.424 96.0161 17.424C96.4321 17.424 96.9441 17.408 97.5521 17.376C101.52 17.28 104.016 15.616 105.04 12.384C105.232 11.744 105.328 11.152 105.328 10.608C105.328 10.032 105.328 9.664 105.328 9.504C105.264 7.36 104.704 5.632 103.648 4.32C102.592 3.008 101.168 2.304 99.3761 2.208C98.6081 2.176 97.6481 2.16 96.4961 2.16Z" fill="black"/>
    <path d="M129.255 33.792H129.879V34.272H119.367V33.792H119.991C120.823 33.792 121.527 33.504 122.103 32.928C122.711 32.32 123.031 31.6 123.063 30.768V4.128C123.031 3.296 122.711 2.592 122.103 2.016C121.527 1.44 120.823 1.152 119.991 1.152H119.367V0.672H129.879V1.152H129.255C128.423 1.152 127.703 1.44 127.095 2.016C126.519 2.592 126.215 3.296 126.183 4.128V30.768C126.183 31.6 126.487 32.32 127.095 32.928C127.703 33.504 128.423 33.792 129.255 33.792ZM148.551 34.272H146.487C143.223 34.272 140.823 33.36 139.287 31.536L127.719 17.568L139.047 3.36C139.303 3.04 139.431 2.752 139.431 2.496C139.431 2.24 139.383 2.016 139.287 1.824C139.031 1.344 138.567 1.104 137.895 1.104H137.415V0.672H147.543V1.104H147.351C145.239 1.104 143.511 1.856 142.167 3.36L130.887 16.416L143.991 31.824C145.271 33.104 146.791 33.76 148.551 33.792V34.272Z" fill="black"/>
    <path d="M153.266 33.792C154.098 33.792 154.802 33.504 155.378 32.928C155.986 32.32 156.306 31.6 156.338 30.768V4.176C156.306 3.344 155.986 2.64 155.378 2.064C154.802 1.456 154.098 1.152 153.266 1.152H152.642V0.672H163.154V1.152H162.53C161.378 1.152 160.498 1.648 159.89 2.64C159.602 3.12 159.458 3.632 159.458 4.176V32.784H166.322C168.69 32.784 170.498 32.256 171.746 31.2C172.994 30.144 174.034 28.576 174.866 26.496H175.346L172.562 34.272H152.642V33.792H153.266Z" fill="black"/>
    <path d="M184.562 4.848C187.986 1.616 192.418 0 197.858 0C203.33 0 207.778 1.616 211.202 4.848C214.626 8.048 216.338 12.256 216.338 17.472C216.338 22.688 214.626 26.912 211.202 30.144C207.778 33.344 203.33 34.944 197.858 34.944C192.418 34.944 187.986 33.344 184.562 30.144C181.138 26.912 179.426 22.688 179.426 17.472C179.426 12.256 181.138 8.048 184.562 4.848ZM187.154 29.088C189.874 32.032 193.442 33.504 197.858 33.504C202.274 33.504 205.826 32.032 208.514 29.088C211.234 26.144 212.594 22.272 212.594 17.472C212.594 12.672 211.234 8.8 208.514 5.856C205.826 2.912 202.274 1.44 197.858 1.44C193.442 1.44 189.874 2.912 187.154 5.856C184.466 8.8 183.122 12.672 183.122 17.472C183.122 22.272 184.466 26.144 187.154 29.088Z" fill="black"/>
    <path d="M231.752 2.16H228.68V30.768C228.68 31.6 228.968 32.32 229.544 32.928C230.152 33.504 230.888 33.792 231.752 33.792H232.328L232.376 34.272H221.864V33.792H222.488C223.32 33.792 224.024 33.504 224.6 32.928C225.208 32.352 225.528 31.648 225.56 30.816V4.176C225.528 3.344 225.208 2.64 224.6 2.064C224.024 1.456 223.32 1.152 222.488 1.152H221.864V0.672H234.824C237.736 0.672 240.024 1.488 241.688 3.12C243.352 4.72 244.184 6.816 244.184 9.408C244.184 11.968 243.384 14.192 241.784 16.08C240.216 17.936 238.296 18.864 236.024 18.864C236.504 19.088 237.064 19.536 237.704 20.208C238.376 20.848 238.968 21.52 239.48 22.224C242.232 26.16 244.024 28.592 244.856 29.52C245.688 30.416 246.28 31.04 246.632 31.392C246.984 31.712 247.368 32.032 247.784 32.352C248.2 32.672 248.616 32.928 249.032 33.12C249.96 33.568 250.952 33.792 252.008 33.792V34.272H249.368C247.992 34.272 246.712 34.032 245.528 33.552C244.344 33.04 243.448 32.528 242.84 32.016C242.264 31.472 241.752 30.96 241.304 30.48C240.888 29.968 239.704 28.304 237.752 25.488C235.8 22.672 234.664 21.072 234.344 20.688C234.024 20.272 233.688 19.872 233.336 19.488C232.312 18.4 231.288 17.856 230.264 17.856V17.376C230.52 17.408 230.856 17.424 231.272 17.424C231.688 17.424 232.2 17.408 232.808 17.376C236.776 17.28 239.272 15.616 240.296 12.384C240.488 11.744 240.584 11.152 240.584 10.608C240.584 10.032 240.584 9.664 240.584 9.504C240.52 7.36 239.96 5.632 238.904 4.32C237.848 3.008 236.424 2.304 234.632 2.208C233.864 2.176 232.904 2.16 231.752 2.16Z" fill="black"/>
    <path d="M282.125 1.152H281.453C280.493 1.152 279.581 1.424 278.717 1.968C277.885 2.48 277.181 3.136 276.605 3.936L267.149 19.296V30.768C267.149 31.6 267.437 32.32 268.013 32.928C268.621 33.504 269.357 33.792 270.221 33.792H270.797V34.272H260.333V33.792H260.957C261.789 33.792 262.493 33.504 263.069 32.928C263.677 32.352 263.997 31.648 264.029 30.816V19.248L254.861 3.936C254.381 3.168 253.693 2.512 252.797 1.968C251.933 1.424 251.021 1.152 250.061 1.152H249.389V0.672H261.197V1.152H260.573C259.869 1.152 259.325 1.472 258.941 2.112C258.749 2.464 258.653 2.816 258.653 3.168C258.653 3.488 258.733 3.808 258.893 4.128L266.093 17.568L273.773 4.08C273.933 3.76 274.013 3.44 274.013 3.12C274.013 2.8 273.901 2.464 273.677 2.112C273.293 1.472 272.749 1.152 272.045 1.152H271.469V0.672H282.125V1.152Z" fill="black"/>
    <path d="M190.464 15.3075C194.964 13.2364 196.464 12.3075 197.536 8.30748C198.964 12.3075 199.964 13.3075 204.464 15.3786C200.097 16.4785 198.464 22.8075 197.536 27.3075C196.464 22.8075 195.464 16.7364 190.464 15.3075Z" fill="#5E4B4B"/>
    <path d="M60 25.272L68 25.272" stroke="black"/>
</svg>
