<svg width="24" height="24" viewBox="0 0 24 24" fill="none" xmlns="http://www.w3.org/2000/svg">
<path d="M17.375 4.89551L17.3486 4.89062H17.3447C17.3421 4.89018 17.3381 4.88952 17.333 4.88867C17.3226 4.88695 17.3072 4.88407 17.2871 4.88086C17.2469 4.87443 17.188 4.86549 17.1133 4.85449C16.9638 4.83249 16.751 4.80276 16.4971 4.77344C15.989 4.71477 15.3153 4.65625 14.6572 4.65625C13.2806 4.65633 12.1384 5.07377 11.3408 5.87207C10.5433 6.67048 10.0938 7.84664 10.0938 9.35645V11.9688H7.04688V15.5H10.0938V23.8164C4.38976 22.9034 0.03125 17.9612 0.03125 12C0.0312505 5.38988 5.38988 0.03125 12 0.03125C18.6101 0.03125 23.9687 5.38988 23.9688 12C23.9688 17.9613 19.6102 22.9034 13.9062 23.8164V15.5H16.6982L16.7021 15.4736L17.2344 12.0049L17.2393 11.9688H13.9062V9.74902C13.9063 9.27907 14.0214 8.81886 14.3174 8.47656C14.6127 8.1351 15.0925 7.90625 15.8311 7.90625H17.375V4.89551Z" fill="#1877F2" stroke="#5E4B4B" stroke-width="0.0625"/>
<path d="M14.6572 4.71875C15.312 4.71875 15.9825 4.77742 16.4893 4.83594C16.7426 4.86519 16.9555 4.89408 17.1045 4.91602C17.1788 4.92696 17.2374 4.936 17.2773 4.94238C17.2914 4.94463 17.3032 4.94671 17.3125 4.94824V7.84375H15.8311C15.0791 7.84375 14.5804 8.07739 14.2705 8.43555C13.9614 8.79299 13.8438 9.26993 13.8438 9.74902V12.0312H17.166L16.6445 15.4375H13.8438V23.8262C13.2336 23.9204 12.6174 23.9689 12 23.9688L11.5303 23.96C11.0702 23.9421 10.6115 23.8965 10.1562 23.8262V15.4375H7.10938V12.0312H10.1562V9.35645C10.1562 7.85893 10.6024 6.7001 11.3857 5.91602C12.1691 5.13208 13.2933 4.71881 14.6572 4.71875Z" fill="white" stroke="#5E4B4B" stroke-width="0.0625"/>
</svg>
