<svg width="283" height="36" viewBox="0 0 283 36" fill="none" xmlns="http://www.w3.org/2000/svg">
    <path d="M0.144 32.804C0.048 32.356 0 31.492 0 30.212C0 28.932 0.24 27.572 0.72 26.132H1.152C1.12 26.484 1.104 26.836 1.104 27.188C1.104 29.14 1.696 30.772 2.88 32.084C4.064 33.364 5.632 34.004 7.584 34.004C9.6 34.004 11.248 33.396 12.528 32.18C13.84 30.964 14.496 29.444 14.496 27.62C14.496 25.764 13.872 24.26 12.624 23.108L3.408 14.564C1.68 12.964 0.816 11.028 0.816 8.756C0.816 6.484 1.568 4.548 3.072 2.948C4.608 1.316 6.672 0.5 9.264 0.5C10.48 0.5 11.856 0.66 13.392 0.98H15.264V6.884H14.832C14.832 5.38 14.304 4.18 13.248 3.284C12.224 2.388 10.896 1.94 9.264 1.94C7.632 1.94 6.256 2.484 5.136 3.572C4.048 4.66 3.504 6.02 3.504 7.652C3.504 9.284 4.144 10.692 5.424 11.876L14.88 20.612C16.48 22.084 17.28 24.1 17.28 26.66C17.28 29.22 16.464 31.332 14.832 32.996C13.2 34.628 11.024 35.444 8.304 35.444C6.896 35.444 5.392 35.22 3.792 34.772C2.224 34.356 1.008 33.7 0.144 32.804Z" fill="#84746A"/>
    <path d="M47.0681 10.436C47.0681 11.844 46.7801 13.156 46.2041 14.372C45.1481 16.644 43.2921 18.228 40.6361 19.124C39.7081 19.444 38.9081 19.604 38.2361 19.604C36.2521 19.604 34.5401 19.236 33.1001 18.5V18.02C35.4361 18.532 37.5961 18.276 39.5801 17.252C41.3401 16.356 42.5401 14.884 43.1801 12.836C43.3721 12.196 43.4681 11.588 43.4681 11.012C43.4681 10.436 43.4681 10.084 43.4681 9.956C43.4041 7.716 42.8121 5.94 41.6921 4.628C40.5721 3.284 39.0041 2.612 36.9881 2.612H31.4681V31.268C31.5001 32.1 31.8041 32.82 32.3801 33.428C32.9881 34.004 33.7081 34.292 34.5401 34.292H35.1641V34.772H24.6521V34.292H25.2761C26.1081 34.292 26.8121 34.004 27.3881 33.428C27.9961 32.82 28.3161 32.1 28.3481 31.268V4.436C28.2521 3.636 27.9161 2.98 27.3401 2.468C26.7641 1.924 26.0761 1.652 25.2761 1.652H24.7001L24.6521 1.172H37.1801C40.2521 1.172 42.6681 2.004 44.4281 3.668C46.1881 5.3 47.0681 7.556 47.0681 10.436Z" fill="#84746A"/>
    <path d="M82.1963 34.292H82.5803V34.772H71.7803V34.292H72.2122C72.8842 34.292 73.3803 34.084 73.7003 33.668C74.0523 33.22 74.2282 32.804 74.2282 32.42C74.2282 32.036 74.1643 31.652 74.0363 31.268L70.9642 23.108H58.0043L54.7882 31.316C54.6602 31.7 54.5963 32.084 54.5963 32.468C54.5963 32.82 54.7563 33.22 55.0763 33.668C55.4283 34.084 55.9403 34.292 56.6123 34.292H57.0443V34.772H47.3963V34.292H47.8283C48.6283 34.292 49.4123 34.036 50.1803 33.524C50.9483 33.012 51.5723 32.26 52.0522 31.268L62.9003 5.444C64.0843 2.852 64.6763 1.204 64.6763 0.5H65.1083L77.9723 31.268C78.4202 32.26 79.0283 33.012 79.7962 33.524C80.5643 34.036 81.3643 34.292 82.1963 34.292ZM58.5802 21.668H70.3883L64.6283 6.26L58.5802 21.668Z" fill="#84746A"/>
    <path d="M96.4961 2.66H93.4241V31.268C93.4241 32.1 93.7121 32.82 94.2881 33.428C94.8961 34.004 95.6321 34.292 96.4961 34.292H97.0721L97.1201 34.772H86.6081V34.292H87.2321C88.0641 34.292 88.7681 34.004 89.3441 33.428C89.9521 32.852 90.2721 32.148 90.3041 31.316V4.676C90.2721 3.844 89.9521 3.14 89.3441 2.564C88.7681 1.956 88.0641 1.652 87.2321 1.652H86.6081V1.172H99.5681C102.48 1.172 104.768 1.988 106.432 3.62C108.096 5.22 108.928 7.316 108.928 9.908C108.928 12.468 108.128 14.692 106.528 16.58C104.96 18.436 103.04 19.364 100.768 19.364C101.248 19.588 101.808 20.036 102.448 20.708C103.12 21.348 103.712 22.02 104.224 22.724C106.976 26.66 108.768 29.092 109.6 30.02C110.432 30.916 111.024 31.54 111.376 31.892C111.728 32.212 112.112 32.532 112.528 32.852C112.944 33.172 113.36 33.428 113.776 33.62C114.704 34.068 115.696 34.292 116.752 34.292V34.772H114.112C112.736 34.772 111.456 34.532 110.272 34.052C109.088 33.54 108.192 33.028 107.584 32.516C107.008 31.972 106.496 31.46 106.048 30.98C105.632 30.468 104.448 28.804 102.496 25.988C100.544 23.172 99.4081 21.572 99.0881 21.188C98.7681 20.772 98.4321 20.372 98.0801 19.988C97.0561 18.9 96.0321 18.356 95.0081 18.356V17.876C95.2641 17.908 95.6001 17.924 96.0161 17.924C96.4321 17.924 96.9441 17.908 97.5521 17.876C101.52 17.78 104.016 16.116 105.04 12.884C105.232 12.244 105.328 11.652 105.328 11.108C105.328 10.532 105.328 10.164 105.328 10.004C105.264 7.86 104.704 6.132 103.648 4.82C102.592 3.508 101.168 2.804 99.3761 2.708C98.6081 2.676 97.6481 2.66 96.4961 2.66Z" fill="#84746A"/>
    <path d="M129.255 34.292H129.879V34.772H119.367V34.292H119.991C120.823 34.292 121.527 34.004 122.103 33.428C122.711 32.82 123.031 32.1 123.063 31.268V4.628C123.031 3.796 122.711 3.092 122.103 2.516C121.527 1.94 120.823 1.652 119.991 1.652H119.367V1.172H129.879V1.652H129.255C128.423 1.652 127.703 1.94 127.095 2.516C126.519 3.092 126.215 3.796 126.183 4.628V31.268C126.183 32.1 126.487 32.82 127.095 33.428C127.703 34.004 128.423 34.292 129.255 34.292ZM148.551 34.772H146.487C143.223 34.772 140.823 33.86 139.287 32.036L127.719 18.068L139.047 3.86C139.303 3.54 139.431 3.252 139.431 2.996C139.431 2.74 139.383 2.516 139.287 2.324C139.031 1.844 138.567 1.604 137.895 1.604H137.415V1.172H147.543V1.604H147.351C145.239 1.604 143.511 2.356 142.167 3.86L130.887 16.916L143.991 32.324C145.271 33.604 146.791 34.26 148.551 34.292V34.772Z" fill="#84746A"/>
    <path d="M153.266 34.292C154.098 34.292 154.802 34.004 155.378 33.428C155.986 32.82 156.306 32.1 156.338 31.268V4.676C156.306 3.844 155.986 3.14 155.378 2.564C154.802 1.956 154.098 1.652 153.266 1.652H152.642V1.172H163.154V1.652H162.53C161.378 1.652 160.498 2.148 159.89 3.14C159.602 3.62 159.458 4.132 159.458 4.676V33.284H166.322C168.69 33.284 170.498 32.756 171.746 31.7C172.994 30.644 174.034 29.076 174.866 26.996H175.346L172.562 34.772H152.642V34.292H153.266Z" fill="#84746A"/>
    <path d="M184.562 5.348C187.986 2.116 192.418 0.5 197.858 0.5C203.33 0.5 207.778 2.116 211.202 5.348C214.626 8.548 216.338 12.756 216.338 17.972C216.338 23.188 214.626 27.412 211.202 30.644C207.778 33.844 203.33 35.444 197.858 35.444C192.418 35.444 187.986 33.844 184.562 30.644C181.138 27.412 179.426 23.188 179.426 17.972C179.426 12.756 181.138 8.548 184.562 5.348ZM187.154 29.588C189.874 32.532 193.442 34.004 197.858 34.004C202.274 34.004 205.826 32.532 208.514 29.588C211.234 26.644 212.594 22.772 212.594 17.972C212.594 13.172 211.234 9.3 208.514 6.356C205.826 3.412 202.274 1.94 197.858 1.94C193.442 1.94 189.874 3.412 187.154 6.356C184.466 9.3 183.122 13.172 183.122 17.972C183.122 22.772 184.466 26.644 187.154 29.588Z" fill="#84746A"/>
    <path d="M231.752 2.66H228.68V31.268C228.68 32.1 228.968 32.82 229.544 33.428C230.152 34.004 230.888 34.292 231.752 34.292H232.328L232.376 34.772H221.864V34.292H222.488C223.32 34.292 224.024 34.004 224.6 33.428C225.208 32.852 225.528 32.148 225.56 31.316V4.676C225.528 3.844 225.208 3.14 224.6 2.564C224.024 1.956 223.32 1.652 222.488 1.652H221.864V1.172H234.824C237.736 1.172 240.024 1.988 241.688 3.62C243.352 5.22 244.184 7.316 244.184 9.908C244.184 12.468 243.384 14.692 241.784 16.58C240.216 18.436 238.296 19.364 236.024 19.364C236.504 19.588 237.064 20.036 237.704 20.708C238.376 21.348 238.968 22.02 239.48 22.724C242.232 26.66 244.024 29.092 244.856 30.02C245.688 30.916 246.28 31.54 246.632 31.892C246.984 32.212 247.368 32.532 247.784 32.852C248.2 33.172 248.616 33.428 249.032 33.62C249.96 34.068 250.952 34.292 252.008 34.292V34.772H249.368C247.992 34.772 246.712 34.532 245.528 34.052C244.344 33.54 243.448 33.028 242.84 32.516C242.264 31.972 241.752 31.46 241.304 30.98C240.888 30.468 239.704 28.804 237.752 25.988C235.8 23.172 234.664 21.572 234.344 21.188C234.024 20.772 233.688 20.372 233.336 19.988C232.312 18.9 231.288 18.356 230.264 18.356V17.876C230.52 17.908 230.856 17.924 231.272 17.924C231.688 17.924 232.2 17.908 232.808 17.876C236.776 17.78 239.272 16.116 240.296 12.884C240.488 12.244 240.584 11.652 240.584 11.108C240.584 10.532 240.584 10.164 240.584 10.004C240.52 7.86 239.96 6.132 238.904 4.82C237.848 3.508 236.424 2.804 234.632 2.708C233.864 2.676 232.904 2.66 231.752 2.66Z" fill="#84746A"/>
    <path d="M282.125 1.652H281.453C280.493 1.652 279.581 1.924 278.717 2.468C277.885 2.98 277.181 3.636 276.605 4.436L267.149 19.796V31.268C267.149 32.1 267.437 32.82 268.013 33.428C268.621 34.004 269.357 34.292 270.221 34.292H270.797V34.772H260.333V34.292H260.957C261.789 34.292 262.493 34.004 263.069 33.428C263.677 32.852 263.997 32.148 264.029 31.316V19.748L254.861 4.436C254.381 3.668 253.693 3.012 252.797 2.468C251.933 1.924 251.021 1.652 250.061 1.652H249.389V1.172H261.197V1.652H260.573C259.869 1.652 259.325 1.972 258.941 2.612C258.749 2.964 258.653 3.316 258.653 3.668C258.653 3.988 258.733 4.308 258.893 4.628L266.093 18.068L273.773 4.58C273.933 4.26 274.013 3.94 274.013 3.62C274.013 3.3 273.901 2.964 273.677 2.612C273.293 1.972 272.749 1.652 272.045 1.652H271.469V1.172H282.125V1.652Z" fill="#84746A"/>
    <path d="M190.464 15.8075C194.964 13.7364 196.464 12.8075 197.536 8.80748C198.964 12.8075 199.964 13.8075 204.464 15.8786C200.097 16.9785 198.464 23.3075 197.536 27.8075C196.464 23.3075 195.464 17.2364 190.464 15.8075Z" fill="#5E4B4B"/>
    <path d="M60 25.772L68 25.772" stroke="#84746A"/>
</svg>
