<svg width="160" height="160" viewBox="0 0 160 160" fill="none" xmlns="http://www.w3.org/2000/svg">
    <path d="M59.9997 146.667H99.9997C133.333 146.667 146.666 133.333 146.666 99.9999V59.9999C146.666 26.6666 133.333 13.3333 99.9997 13.3333H59.9997C26.6663 13.3333 13.333 26.6666 13.333 59.9999V99.9999C13.333 133.333 26.6663 146.667 59.9997 146.667Z" stroke="black" stroke-width="1.5" stroke-linecap="round" stroke-linejoin="round"/>
    <path d="M60.0003 66.6667C67.3641 66.6667 73.3337 60.6971 73.3337 53.3333C73.3337 45.9695 67.3641 40 60.0003 40C52.6365 40 46.667 45.9695 46.667 53.3333C46.667 60.6971 52.6365 66.6667 60.0003 66.6667Z" stroke="black" stroke-width="1.5" stroke-linecap="round" stroke-linejoin="round"/>
    <path d="M17.7998 126.333L50.6665 104.267C55.9331 100.733 63.5331 101.133 68.2665 105.2L70.4665 107.133C75.6665 111.6 84.0665 111.6 89.2665 107.133L117 83.3334C122.2 78.8667 130.6 78.8667 135.8 83.3334L146.666 92.6667" stroke="#292D32" stroke-width="1.5" stroke-linecap="round" stroke-linejoin="round"/>
</svg>
