<svg width="36" height="33" viewBox="0 0 36 33" fill="none" xmlns="http://www.w3.org/2000/svg">
<path d="M16.1925 1.81554C16.915 0.290485 19.085 0.29049 19.8075 1.81554L23.4557 9.51702C23.7607 10.1609 24.3852 10.5939 25.0951 10.6537L33.9192 11.3977C35.7211 11.5497 36.4123 13.825 34.9992 14.9535L28.6263 20.0431C28.0159 20.5306 27.7452 21.3289 27.9331 22.0871L29.8431 29.791C30.2609 31.4764 28.4799 32.8571 26.9518 32.0322L18.95 27.7128C18.3571 27.3928 17.6429 27.3928 17.05 27.7128L9.04818 32.0322C7.52014 32.8571 5.73907 31.4764 6.15693 29.791L8.06686 22.0871C8.25484 21.3289 7.98414 20.5306 7.37371 20.0431L1.00075 14.9535C-0.412271 13.825 0.278853 11.5497 2.08079 11.3977L10.9049 10.6537C11.6148 10.5939 12.2393 10.1609 12.5443 9.51701L16.1925 1.81554Z" fill="#EECC20"/>
</svg>
