<svg width="24" height="24" viewBox="0 0 24 24" fill="none" xmlns="http://www.w3.org/2000/svg">
<path d="M21.5559 7.19703C21.4422 6.77353 21.2192 6.38737 20.9091 6.07731C20.599 5.76725 20.2129 5.5442 19.7894 5.43053C18.6324 4.98353 7.42338 4.76453 4.17138 5.44303C3.74782 5.55674 3.36162 5.77987 3.05155 6.09002C2.74149 6.40018 2.51847 6.78644 2.40488 7.21003C1.88238 9.50153 1.84288 14.4555 2.41788 16.7985C2.53154 17.222 2.7546 17.6082 3.06466 17.9183C3.37472 18.2283 3.76088 18.4514 4.18438 18.565C6.47588 19.0925 17.3699 19.1665 19.8024 18.565C20.2259 18.4514 20.612 18.2283 20.9221 17.9183C21.2322 17.6082 21.4552 17.222 21.5689 16.7985C22.1259 14.302 22.1654 9.65503 21.5559 7.19703Z" stroke="black" stroke-width="0.5" stroke-linecap="round" stroke-linejoin="round"/>
<path d="M15.2836 11.9975L10.0601 9.00195V14.993L15.2836 11.9975Z" stroke="black" stroke-width="0.5" stroke-linecap="round" stroke-linejoin="round"/>
</svg>
